# xmcd
#
# Track frame offsets: 
#        300
#        10789
#        22276
#        36220
#        47985
#        59868
#        71983
#        84560
#        96530
#        107840
#        121469
#        134623
#        147026
#        159838
#        172686
#        189064
#        201291
#        211812
#        223985
#        236042
#        248017
#        260645
#        272170
#        284607
#        297776
#
# Disc length: 4118 seconds
#
# Revision: 4
# Processed by: cddbd v1.5.2PL0 Copyright (c) Steve Scherf et al.
# Submitted via: ExactAudioCopy v1.0b1
#
DISCID=8e101219
DTITLE=Bobby "Blue" Bland - Turn On Your Love Light - The Duke Recordi
DTITLE=ngs (Volume 2) [CD2]
DYEAR=1994
DGENRE=Blues
TTITLE0=Sometimes You Gotta Cry A Little
TTITLE1=Honey Child
TTITLE2=I'll Call You Tomorrow
TTITLE3=Dust Got In Daddy's Eyes
TTITLE4=If I Hadn't Called You Back
TTITLE5=Ain't Nothing You Can Do
TTITLE6=Share Your Love With Me
TTITLE7=Care For Me
TTITLE8=After It's Too Late
TTITLE9=Today
TTITLE10=Black Night (LP Version)
TTITLE11=For Men Only
TTITLE12=The Greatest
TTITLE13=Black Night (45 Version)
TTITLE14=Blind Man
TTITLE15=Steal Away
TTITLE16=If You Could Read My Mind
TTITLE17=Ain't Doin' Too Bad, Part 1
TTITLE18=Ain't Doin' Too Bad, Part 2
TTITLE19=I Won't Forget
TTITLE20=Loneliness Hurts
TTITLE21=When You Put Me Down
TTITLE22=I'm Gonna Cry
TTITLE23=Reconsider Baby
TTITLE24=Ain't No Telling
EXTD=
EXTT0=
EXTT1=
EXTT2=
EXTT3=
EXTT4=
EXTT5=
EXTT6=
EXTT7=
EXTT8=
EXTT9=
EXTT10=
EXTT11=
EXTT12=
EXTT13=
EXTT14=
EXTT15=
EXTT16=
EXTT17=
EXTT18=
EXTT19=
EXTT20=
EXTT21=
EXTT22=
EXTT23=
EXTT24=
PLAYORDER=
